<mxfile host="app.diagrams.net" agent="Mozilla/5.0 (Windows NT 10.0; Win64; x64) AppleWebKit/537.36 (KHTML, like Gecko) Chrome/131.0.0.0 Safari/537.36 Edg/131.0.0.0" version="25.0.1">
  <diagram name="Trang-1" id="zPVH3pfTZwxltfrTrZ0j">
    <mxGraphModel grid="1" page="1" gridSize="10" guides="1" tooltips="1" connect="1" arrows="1" fold="1" pageScale="1" pageWidth="827" pageHeight="1169" math="0" shadow="0">
      <root>
        <mxCell id="0" />
        <mxCell id="1" parent="0" />
        <mxCell id="Kf68Aui4b1_65YNm7yTW-1" value="Fact_Promotion" style="swimlane;fontStyle=0;childLayout=stackLayout;horizontal=1;startSize=26;fillColor=none;horizontalStack=0;resizeParent=1;resizeParentMax=0;resizeLast=0;collapsible=1;marginBottom=0;whiteSpace=wrap;html=1;" vertex="1" parent="1">
          <mxGeometry x="430" y="60" width="220" height="338" as="geometry" />
        </mxCell>
        <mxCell id="Kf68Aui4b1_65YNm7yTW-2" value="- Fact Key (PK)" style="text;strokeColor=none;fillColor=none;align=left;verticalAlign=top;spacingLeft=4;spacingRight=4;overflow=hidden;rotatable=0;points=[[0,0.5],[1,0.5]];portConstraint=eastwest;whiteSpace=wrap;html=1;" vertex="1" parent="Kf68Aui4b1_65YNm7yTW-1">
          <mxGeometry y="26" width="220" height="26" as="geometry" />
        </mxCell>
        <mxCell id="Kf68Aui4b1_65YNm7yTW-3" value="- Promotion ID (FK)&lt;span style=&quot;white-space: pre;&quot;&gt;&#x9;&lt;/span&gt;" style="text;strokeColor=none;fillColor=none;align=left;verticalAlign=top;spacingLeft=4;spacingRight=4;overflow=hidden;rotatable=0;points=[[0,0.5],[1,0.5]];portConstraint=eastwest;whiteSpace=wrap;html=1;" vertex="1" parent="Kf68Aui4b1_65YNm7yTW-1">
          <mxGeometry y="52" width="220" height="26" as="geometry" />
        </mxCell>
        <mxCell id="Kf68Aui4b1_65YNm7yTW-5" value="- Customer ID (FK)&lt;div&gt;&lt;br&gt;&lt;/div&gt;" style="text;strokeColor=none;fillColor=none;align=left;verticalAlign=top;spacingLeft=4;spacingRight=4;overflow=hidden;rotatable=0;points=[[0,0.5],[1,0.5]];portConstraint=eastwest;whiteSpace=wrap;html=1;" vertex="1" parent="Kf68Aui4b1_65YNm7yTW-1">
          <mxGeometry y="78" width="220" height="26" as="geometry" />
        </mxCell>
        <mxCell id="Kf68Aui4b1_65YNm7yTW-6" value="&lt;div&gt;- Product ID (FK)&lt;br&gt;&lt;/div&gt;" style="text;strokeColor=none;fillColor=none;align=left;verticalAlign=top;spacingLeft=4;spacingRight=4;overflow=hidden;rotatable=0;points=[[0,0.5],[1,0.5]];portConstraint=eastwest;whiteSpace=wrap;html=1;" vertex="1" parent="Kf68Aui4b1_65YNm7yTW-1">
          <mxGeometry y="104" width="220" height="26" as="geometry" />
        </mxCell>
        <mxCell id="Kf68Aui4b1_65YNm7yTW-7" value="&lt;div&gt;- Store ID (FK)&lt;br&gt;&lt;/div&gt;" style="text;strokeColor=none;fillColor=none;align=left;verticalAlign=top;spacingLeft=4;spacingRight=4;overflow=hidden;rotatable=0;points=[[0,0.5],[1,0.5]];portConstraint=eastwest;whiteSpace=wrap;html=1;" vertex="1" parent="Kf68Aui4b1_65YNm7yTW-1">
          <mxGeometry y="130" width="220" height="26" as="geometry" />
        </mxCell>
        <mxCell id="Kf68Aui4b1_65YNm7yTW-8" value="&lt;div&gt;- Date ID (FK)&lt;br&gt;&lt;/div&gt;" style="text;strokeColor=none;fillColor=none;align=left;verticalAlign=top;spacingLeft=4;spacingRight=4;overflow=hidden;rotatable=0;points=[[0,0.5],[1,0.5]];portConstraint=eastwest;whiteSpace=wrap;html=1;" vertex="1" parent="Kf68Aui4b1_65YNm7yTW-1">
          <mxGeometry y="156" width="220" height="26" as="geometry" />
        </mxCell>
        <mxCell id="Kf68Aui4b1_65YNm7yTW-43" value="&lt;div&gt;- Demographic_ID (FK)&lt;br&gt;&lt;/div&gt;" style="text;strokeColor=none;fillColor=none;align=left;verticalAlign=top;spacingLeft=4;spacingRight=4;overflow=hidden;rotatable=0;points=[[0,0.5],[1,0.5]];portConstraint=eastwest;whiteSpace=wrap;html=1;" vertex="1" parent="Kf68Aui4b1_65YNm7yTW-1">
          <mxGeometry y="182" width="220" height="26" as="geometry" />
        </mxCell>
        <mxCell id="Kf68Aui4b1_65YNm7yTW-9" value="&lt;div&gt;- Discount Amount (float)&lt;/div&gt;" style="text;strokeColor=none;fillColor=none;align=left;verticalAlign=top;spacingLeft=4;spacingRight=4;overflow=hidden;rotatable=0;points=[[0,0.5],[1,0.5]];portConstraint=eastwest;whiteSpace=wrap;html=1;" vertex="1" parent="Kf68Aui4b1_65YNm7yTW-1">
          <mxGeometry y="208" width="220" height="26" as="geometry" />
        </mxCell>
        <mxCell id="Kf68Aui4b1_65YNm7yTW-10" value="- Discount Precentage (float)" style="text;strokeColor=none;fillColor=none;align=left;verticalAlign=top;spacingLeft=4;spacingRight=4;overflow=hidden;rotatable=0;points=[[0,0.5],[1,0.5]];portConstraint=eastwest;whiteSpace=wrap;html=1;" vertex="1" parent="Kf68Aui4b1_65YNm7yTW-1">
          <mxGeometry y="234" width="220" height="26" as="geometry" />
        </mxCell>
        <mxCell id="Kf68Aui4b1_65YNm7yTW-11" value="- Quantity Sold (int)" style="text;strokeColor=none;fillColor=none;align=left;verticalAlign=top;spacingLeft=4;spacingRight=4;overflow=hidden;rotatable=0;points=[[0,0.5],[1,0.5]];portConstraint=eastwest;whiteSpace=wrap;html=1;" vertex="1" parent="Kf68Aui4b1_65YNm7yTW-1">
          <mxGeometry y="260" width="220" height="26" as="geometry" />
        </mxCell>
        <mxCell id="Kf68Aui4b1_65YNm7yTW-12" value="-&amp;nbsp;Revenue_After_Discount (float)" style="text;strokeColor=none;fillColor=none;align=left;verticalAlign=top;spacingLeft=4;spacingRight=4;overflow=hidden;rotatable=0;points=[[0,0.5],[1,0.5]];portConstraint=eastwest;whiteSpace=wrap;html=1;" vertex="1" parent="Kf68Aui4b1_65YNm7yTW-1">
          <mxGeometry y="286" width="220" height="26" as="geometry" />
        </mxCell>
        <mxCell id="Kf68Aui4b1_65YNm7yTW-14" value="- Net Profit (float)" style="text;strokeColor=none;fillColor=none;align=left;verticalAlign=top;spacingLeft=4;spacingRight=4;overflow=hidden;rotatable=0;points=[[0,0.5],[1,0.5]];portConstraint=eastwest;whiteSpace=wrap;html=1;" vertex="1" parent="Kf68Aui4b1_65YNm7yTW-1">
          <mxGeometry y="312" width="220" height="26" as="geometry" />
        </mxCell>
        <mxCell id="Kf68Aui4b1_65YNm7yTW-15" value="Dim_Promotion" style="swimlane;fontStyle=0;childLayout=stackLayout;horizontal=1;startSize=20;fillColor=none;horizontalStack=0;resizeParent=1;resizeParentMax=0;resizeLast=0;collapsible=1;marginBottom=0;whiteSpace=wrap;html=1;" vertex="1" parent="1">
          <mxGeometry x="310" y="-310" width="190" height="202" as="geometry" />
        </mxCell>
        <mxCell id="Kf68Aui4b1_65YNm7yTW-16" value="- Product_ID (PK) (int)" style="text;strokeColor=none;fillColor=none;align=left;verticalAlign=top;spacingLeft=4;spacingRight=4;overflow=hidden;rotatable=0;points=[[0,0.5],[1,0.5]];portConstraint=eastwest;whiteSpace=wrap;html=1;" vertex="1" parent="Kf68Aui4b1_65YNm7yTW-15">
          <mxGeometry y="20" width="190" height="26" as="geometry" />
        </mxCell>
        <mxCell id="Kf68Aui4b1_65YNm7yTW-17" value="- Promotion name (String)" style="text;strokeColor=none;fillColor=none;align=left;verticalAlign=top;spacingLeft=4;spacingRight=4;overflow=hidden;rotatable=0;points=[[0,0.5],[1,0.5]];portConstraint=eastwest;whiteSpace=wrap;html=1;" vertex="1" parent="Kf68Aui4b1_65YNm7yTW-15">
          <mxGeometry y="46" width="190" height="26" as="geometry" />
        </mxCell>
        <mxCell id="Kf68Aui4b1_65YNm7yTW-18" value="- Promotion type (String)" style="text;strokeColor=none;fillColor=none;align=left;verticalAlign=top;spacingLeft=4;spacingRight=4;overflow=hidden;rotatable=0;points=[[0,0.5],[1,0.5]];portConstraint=eastwest;whiteSpace=wrap;html=1;" vertex="1" parent="Kf68Aui4b1_65YNm7yTW-15">
          <mxGeometry y="72" width="190" height="26" as="geometry" />
        </mxCell>
        <mxCell id="Kf68Aui4b1_65YNm7yTW-20" value="&lt;div&gt;-&amp;nbsp;End_Date&amp;nbsp; (Date)&lt;/div&gt;" style="text;strokeColor=none;fillColor=none;align=left;verticalAlign=top;spacingLeft=4;spacingRight=4;overflow=hidden;rotatable=0;points=[[0,0.5],[1,0.5]];portConstraint=eastwest;whiteSpace=wrap;html=1;" vertex="1" parent="Kf68Aui4b1_65YNm7yTW-15">
          <mxGeometry y="98" width="190" height="26" as="geometry" />
        </mxCell>
        <mxCell id="Kf68Aui4b1_65YNm7yTW-19" value="&lt;div&gt;-&amp;nbsp;Start_Date (Date)&lt;/div&gt;" style="text;strokeColor=none;fillColor=none;align=left;verticalAlign=top;spacingLeft=4;spacingRight=4;overflow=hidden;rotatable=0;points=[[0,0.5],[1,0.5]];portConstraint=eastwest;whiteSpace=wrap;html=1;" vertex="1" parent="Kf68Aui4b1_65YNm7yTW-15">
          <mxGeometry y="124" width="190" height="26" as="geometry" />
        </mxCell>
        <mxCell id="Kf68Aui4b1_65YNm7yTW-21" value="&lt;b&gt;-&amp;nbsp;&lt;/b&gt;Promotion_Channel (String)" style="text;strokeColor=none;fillColor=none;align=left;verticalAlign=top;spacingLeft=4;spacingRight=4;overflow=hidden;rotatable=0;points=[[0,0.5],[1,0.5]];portConstraint=eastwest;whiteSpace=wrap;html=1;" vertex="1" parent="Kf68Aui4b1_65YNm7yTW-15">
          <mxGeometry y="150" width="190" height="26" as="geometry" />
        </mxCell>
        <mxCell id="Kf68Aui4b1_65YNm7yTW-22" value="&lt;b&gt;-&amp;nbsp;&lt;/b&gt;Promotion_Code (String)" style="text;strokeColor=none;fillColor=none;align=left;verticalAlign=top;spacingLeft=4;spacingRight=4;overflow=hidden;rotatable=0;points=[[0,0.5],[1,0.5]];portConstraint=eastwest;whiteSpace=wrap;html=1;" vertex="1" parent="Kf68Aui4b1_65YNm7yTW-15">
          <mxGeometry y="176" width="190" height="26" as="geometry" />
        </mxCell>
        <mxCell id="Kf68Aui4b1_65YNm7yTW-23" value="Dim_Customer" style="swimlane;fontStyle=0;childLayout=stackLayout;horizontal=1;startSize=20;fillColor=none;horizontalStack=0;resizeParent=1;resizeParentMax=0;resizeLast=0;collapsible=1;marginBottom=0;whiteSpace=wrap;html=1;" vertex="1" parent="1">
          <mxGeometry x="800" y="50" width="190" height="176" as="geometry" />
        </mxCell>
        <mxCell id="Kf68Aui4b1_65YNm7yTW-24" value="- Customer_ID (PK)" style="text;strokeColor=none;fillColor=none;align=left;verticalAlign=top;spacingLeft=4;spacingRight=4;overflow=hidden;rotatable=0;points=[[0,0.5],[1,0.5]];portConstraint=eastwest;whiteSpace=wrap;html=1;" vertex="1" parent="Kf68Aui4b1_65YNm7yTW-23">
          <mxGeometry y="20" width="190" height="26" as="geometry" />
        </mxCell>
        <mxCell id="Kf68Aui4b1_65YNm7yTW-31" value="- Customer Name (String)" style="text;strokeColor=none;fillColor=none;align=left;verticalAlign=top;spacingLeft=4;spacingRight=4;overflow=hidden;rotatable=0;points=[[0,0.5],[1,0.5]];portConstraint=eastwest;whiteSpace=wrap;html=1;" vertex="1" parent="Kf68Aui4b1_65YNm7yTW-23">
          <mxGeometry y="46" width="190" height="26" as="geometry" />
        </mxCell>
        <mxCell id="Kf68Aui4b1_65YNm7yTW-25" value="- Current_Demographic ID (FK)" style="text;strokeColor=none;fillColor=none;align=left;verticalAlign=top;spacingLeft=4;spacingRight=4;overflow=hidden;rotatable=0;points=[[0,0.5],[1,0.5]];portConstraint=eastwest;whiteSpace=wrap;html=1;" vertex="1" parent="Kf68Aui4b1_65YNm7yTW-23">
          <mxGeometry y="72" width="190" height="26" as="geometry" />
        </mxCell>
        <mxCell id="Kf68Aui4b1_65YNm7yTW-26" value="-&amp;nbsp;Customer_Gender&amp;nbsp;&lt;div&gt;&lt;br&gt;&lt;/div&gt;" style="text;strokeColor=none;fillColor=none;align=left;verticalAlign=top;spacingLeft=4;spacingRight=4;overflow=hidden;rotatable=0;points=[[0,0.5],[1,0.5]];portConstraint=eastwest;whiteSpace=wrap;html=1;" vertex="1" parent="Kf68Aui4b1_65YNm7yTW-23">
          <mxGeometry y="98" width="190" height="26" as="geometry" />
        </mxCell>
        <mxCell id="Kf68Aui4b1_65YNm7yTW-27" value="&lt;div&gt;-&amp;nbsp;Customer_Location&amp;nbsp;&lt;/div&gt;" style="text;strokeColor=none;fillColor=none;align=left;verticalAlign=top;spacingLeft=4;spacingRight=4;overflow=hidden;rotatable=0;points=[[0,0.5],[1,0.5]];portConstraint=eastwest;whiteSpace=wrap;html=1;" vertex="1" parent="Kf68Aui4b1_65YNm7yTW-23">
          <mxGeometry y="124" width="190" height="26" as="geometry" />
        </mxCell>
        <mxCell id="Kf68Aui4b1_65YNm7yTW-29" value="&lt;b&gt;-&amp;nbsp;&lt;/b&gt;Customer_Segment&lt;b&gt;&amp;nbsp;&lt;/b&gt;" style="text;strokeColor=none;fillColor=none;align=left;verticalAlign=top;spacingLeft=4;spacingRight=4;overflow=hidden;rotatable=0;points=[[0,0.5],[1,0.5]];portConstraint=eastwest;whiteSpace=wrap;html=1;" vertex="1" parent="Kf68Aui4b1_65YNm7yTW-23">
          <mxGeometry y="150" width="190" height="26" as="geometry" />
        </mxCell>
        <mxCell id="Kf68Aui4b1_65YNm7yTW-33" value="Dim_Demographic" style="swimlane;fontStyle=0;childLayout=stackLayout;horizontal=1;startSize=20;fillColor=none;horizontalStack=0;resizeParent=1;resizeParentMax=0;resizeLast=0;collapsible=1;marginBottom=0;whiteSpace=wrap;html=1;" vertex="1" parent="1">
          <mxGeometry x="840" y="349" width="140" height="72" as="geometry" />
        </mxCell>
        <mxCell id="Kf68Aui4b1_65YNm7yTW-34" value="- Demographic ID (PK)" style="text;strokeColor=none;fillColor=none;align=left;verticalAlign=top;spacingLeft=4;spacingRight=4;overflow=hidden;rotatable=0;points=[[0,0.5],[1,0.5]];portConstraint=eastwest;whiteSpace=wrap;html=1;" vertex="1" parent="Kf68Aui4b1_65YNm7yTW-33">
          <mxGeometry y="20" width="140" height="26" as="geometry" />
        </mxCell>
        <mxCell id="Kf68Aui4b1_65YNm7yTW-39" value="&lt;b&gt;- &lt;/b&gt;Age_Group" style="text;strokeColor=none;fillColor=none;align=left;verticalAlign=top;spacingLeft=4;spacingRight=4;overflow=hidden;rotatable=0;points=[[0,0.5],[1,0.5]];portConstraint=eastwest;whiteSpace=wrap;html=1;" vertex="1" parent="Kf68Aui4b1_65YNm7yTW-33">
          <mxGeometry y="46" width="140" height="26" as="geometry" />
        </mxCell>
        <mxCell id="Kf68Aui4b1_65YNm7yTW-44" value="Dim_Product" style="swimlane;fontStyle=0;childLayout=stackLayout;horizontal=1;startSize=20;fillColor=none;horizontalStack=0;resizeParent=1;resizeParentMax=0;resizeLast=0;collapsible=1;marginBottom=0;whiteSpace=wrap;html=1;" vertex="1" parent="1">
          <mxGeometry x="-30" y="40" width="180" height="150" as="geometry" />
        </mxCell>
        <mxCell id="Kf68Aui4b1_65YNm7yTW-45" value="- Product ID (PK) (int)" style="text;strokeColor=none;fillColor=none;align=left;verticalAlign=top;spacingLeft=4;spacingRight=4;overflow=hidden;rotatable=0;points=[[0,0.5],[1,0.5]];portConstraint=eastwest;whiteSpace=wrap;html=1;" vertex="1" parent="Kf68Aui4b1_65YNm7yTW-44">
          <mxGeometry y="20" width="180" height="26" as="geometry" />
        </mxCell>
        <mxCell id="Kf68Aui4b1_65YNm7yTW-46" value="-&amp;nbsp;Product_Name (string)" style="text;strokeColor=none;fillColor=none;align=left;verticalAlign=top;spacingLeft=4;spacingRight=4;overflow=hidden;rotatable=0;points=[[0,0.5],[1,0.5]];portConstraint=eastwest;whiteSpace=wrap;html=1;" vertex="1" parent="Kf68Aui4b1_65YNm7yTW-44">
          <mxGeometry y="46" width="180" height="26" as="geometry" />
        </mxCell>
        <mxCell id="Kf68Aui4b1_65YNm7yTW-47" value="&lt;div&gt;-&amp;nbsp;Product_Category&amp;nbsp; (string)&lt;/div&gt;" style="text;strokeColor=none;fillColor=none;align=left;verticalAlign=top;spacingLeft=4;spacingRight=4;overflow=hidden;rotatable=0;points=[[0,0.5],[1,0.5]];portConstraint=eastwest;whiteSpace=wrap;html=1;" vertex="1" parent="Kf68Aui4b1_65YNm7yTW-44">
          <mxGeometry y="72" width="180" height="26" as="geometry" />
        </mxCell>
        <mxCell id="Kf68Aui4b1_65YNm7yTW-48" value="&lt;div&gt;-&amp;nbsp;Product_Price (float)&lt;/div&gt;" style="text;strokeColor=none;fillColor=none;align=left;verticalAlign=top;spacingLeft=4;spacingRight=4;overflow=hidden;rotatable=0;points=[[0,0.5],[1,0.5]];portConstraint=eastwest;whiteSpace=wrap;html=1;" vertex="1" parent="Kf68Aui4b1_65YNm7yTW-44">
          <mxGeometry y="98" width="180" height="26" as="geometry" />
        </mxCell>
        <mxCell id="Kf68Aui4b1_65YNm7yTW-49" value="&lt;div&gt;-&amp;nbsp;Product_Brand (String)&lt;/div&gt;" style="text;strokeColor=none;fillColor=none;align=left;verticalAlign=top;spacingLeft=4;spacingRight=4;overflow=hidden;rotatable=0;points=[[0,0.5],[1,0.5]];portConstraint=eastwest;whiteSpace=wrap;html=1;" vertex="1" parent="Kf68Aui4b1_65YNm7yTW-44">
          <mxGeometry y="124" width="180" height="26" as="geometry" />
        </mxCell>
        <mxCell id="zgtpy2xoL4krk51yB7vZ-1" value="Dim_Store" style="swimlane;fontStyle=0;childLayout=stackLayout;horizontal=1;startSize=20;fillColor=none;horizontalStack=0;resizeParent=1;resizeParentMax=0;resizeLast=0;collapsible=1;marginBottom=0;whiteSpace=wrap;html=1;" vertex="1" parent="1">
          <mxGeometry x="-80" y="349" width="190" height="150" as="geometry" />
        </mxCell>
        <mxCell id="zgtpy2xoL4krk51yB7vZ-2" value="-&amp;nbsp;Store_ID (PK) (int)" style="text;strokeColor=none;fillColor=none;align=left;verticalAlign=top;spacingLeft=4;spacingRight=4;overflow=hidden;rotatable=0;points=[[0,0.5],[1,0.5]];portConstraint=eastwest;whiteSpace=wrap;html=1;" vertex="1" parent="zgtpy2xoL4krk51yB7vZ-1">
          <mxGeometry y="20" width="190" height="26" as="geometry" />
        </mxCell>
        <mxCell id="zgtpy2xoL4krk51yB7vZ-3" value="-&amp;nbsp;Store_Name (String)" style="text;strokeColor=none;fillColor=none;align=left;verticalAlign=top;spacingLeft=4;spacingRight=4;overflow=hidden;rotatable=0;points=[[0,0.5],[1,0.5]];portConstraint=eastwest;whiteSpace=wrap;html=1;" vertex="1" parent="zgtpy2xoL4krk51yB7vZ-1">
          <mxGeometry y="46" width="190" height="26" as="geometry" />
        </mxCell>
        <mxCell id="zgtpy2xoL4krk51yB7vZ-4" value="&lt;div&gt;-&amp;nbsp;Store_Location (String)&lt;/div&gt;" style="text;strokeColor=none;fillColor=none;align=left;verticalAlign=top;spacingLeft=4;spacingRight=4;overflow=hidden;rotatable=0;points=[[0,0.5],[1,0.5]];portConstraint=eastwest;whiteSpace=wrap;html=1;" vertex="1" parent="zgtpy2xoL4krk51yB7vZ-1">
          <mxGeometry y="72" width="190" height="26" as="geometry" />
        </mxCell>
        <mxCell id="zgtpy2xoL4krk51yB7vZ-5" value="&lt;div&gt;-&amp;nbsp;Store_Type (String)&lt;/div&gt;" style="text;strokeColor=none;fillColor=none;align=left;verticalAlign=top;spacingLeft=4;spacingRight=4;overflow=hidden;rotatable=0;points=[[0,0.5],[1,0.5]];portConstraint=eastwest;whiteSpace=wrap;html=1;" vertex="1" parent="zgtpy2xoL4krk51yB7vZ-1">
          <mxGeometry y="98" width="190" height="26" as="geometry" />
        </mxCell>
        <mxCell id="zgtpy2xoL4krk51yB7vZ-6" value="&lt;div&gt;-&amp;nbsp;Store_Manager (String)&lt;/div&gt;" style="text;strokeColor=none;fillColor=none;align=left;verticalAlign=top;spacingLeft=4;spacingRight=4;overflow=hidden;rotatable=0;points=[[0,0.5],[1,0.5]];portConstraint=eastwest;whiteSpace=wrap;html=1;" vertex="1" parent="zgtpy2xoL4krk51yB7vZ-1">
          <mxGeometry y="124" width="190" height="26" as="geometry" />
        </mxCell>
        <mxCell id="zgtpy2xoL4krk51yB7vZ-7" value="Dim_Date" style="swimlane;fontStyle=0;childLayout=stackLayout;horizontal=1;startSize=20;fillColor=none;horizontalStack=0;resizeParent=1;resizeParentMax=0;resizeLast=0;collapsible=1;marginBottom=0;whiteSpace=wrap;html=1;" vertex="1" parent="1">
          <mxGeometry x="180" y="430" width="210" height="150" as="geometry" />
        </mxCell>
        <mxCell id="zgtpy2xoL4krk51yB7vZ-8" value="-&amp;nbsp;Date_ID (PK) (Date)" style="text;strokeColor=none;fillColor=none;align=left;verticalAlign=top;spacingLeft=4;spacingRight=4;overflow=hidden;rotatable=0;points=[[0,0.5],[1,0.5]];portConstraint=eastwest;whiteSpace=wrap;html=1;" vertex="1" parent="zgtpy2xoL4krk51yB7vZ-7">
          <mxGeometry y="20" width="210" height="26" as="geometry" />
        </mxCell>
        <mxCell id="zgtpy2xoL4krk51yB7vZ-9" value="-&amp;nbsp;Day_Of_Week (String)" style="text;strokeColor=none;fillColor=none;align=left;verticalAlign=top;spacingLeft=4;spacingRight=4;overflow=hidden;rotatable=0;points=[[0,0.5],[1,0.5]];portConstraint=eastwest;whiteSpace=wrap;html=1;" vertex="1" parent="zgtpy2xoL4krk51yB7vZ-7">
          <mxGeometry y="46" width="210" height="26" as="geometry" />
        </mxCell>
        <mxCell id="zgtpy2xoL4krk51yB7vZ-10" value="&lt;div&gt;-&amp;nbsp;Month (String)&lt;/div&gt;" style="text;strokeColor=none;fillColor=none;align=left;verticalAlign=top;spacingLeft=4;spacingRight=4;overflow=hidden;rotatable=0;points=[[0,0.5],[1,0.5]];portConstraint=eastwest;whiteSpace=wrap;html=1;" vertex="1" parent="zgtpy2xoL4krk51yB7vZ-7">
          <mxGeometry y="72" width="210" height="26" as="geometry" />
        </mxCell>
        <mxCell id="zgtpy2xoL4krk51yB7vZ-11" value="&lt;div&gt;-&amp;nbsp;Quarter (int)&lt;/div&gt;" style="text;strokeColor=none;fillColor=none;align=left;verticalAlign=top;spacingLeft=4;spacingRight=4;overflow=hidden;rotatable=0;points=[[0,0.5],[1,0.5]];portConstraint=eastwest;whiteSpace=wrap;html=1;" vertex="1" parent="zgtpy2xoL4krk51yB7vZ-7">
          <mxGeometry y="98" width="210" height="26" as="geometry" />
        </mxCell>
        <mxCell id="zgtpy2xoL4krk51yB7vZ-12" value="&lt;div&gt;-&amp;nbsp;Year (int)&lt;/div&gt;" style="text;strokeColor=none;fillColor=none;align=left;verticalAlign=top;spacingLeft=4;spacingRight=4;overflow=hidden;rotatable=0;points=[[0,0.5],[1,0.5]];portConstraint=eastwest;whiteSpace=wrap;html=1;" vertex="1" parent="zgtpy2xoL4krk51yB7vZ-7">
          <mxGeometry y="124" width="210" height="26" as="geometry" />
        </mxCell>
        <mxCell id="D4SyCalu29Dmkyxth2O4-1" style="edgeStyle=orthogonalEdgeStyle;rounded=0;orthogonalLoop=1;jettySize=auto;html=1;endArrow=none;endFill=0;startArrow=classic;startFill=1;" edge="1" parent="1" source="Kf68Aui4b1_65YNm7yTW-45" target="Kf68Aui4b1_65YNm7yTW-6">
          <mxGeometry relative="1" as="geometry" />
        </mxCell>
        <mxCell id="D4SyCalu29Dmkyxth2O4-2" style="edgeStyle=orthogonalEdgeStyle;rounded=0;orthogonalLoop=1;jettySize=auto;html=1;" edge="1" parent="1" source="Kf68Aui4b1_65YNm7yTW-16" target="Kf68Aui4b1_65YNm7yTW-3">
          <mxGeometry relative="1" as="geometry" />
        </mxCell>
        <mxCell id="D4SyCalu29Dmkyxth2O4-3" style="edgeStyle=orthogonalEdgeStyle;rounded=0;orthogonalLoop=1;jettySize=auto;html=1;" edge="1" parent="1" source="zgtpy2xoL4krk51yB7vZ-2" target="Kf68Aui4b1_65YNm7yTW-7">
          <mxGeometry relative="1" as="geometry" />
        </mxCell>
        <mxCell id="D4SyCalu29Dmkyxth2O4-4" style="edgeStyle=orthogonalEdgeStyle;rounded=0;orthogonalLoop=1;jettySize=auto;html=1;" edge="1" parent="1" source="zgtpy2xoL4krk51yB7vZ-8" target="Kf68Aui4b1_65YNm7yTW-8">
          <mxGeometry relative="1" as="geometry" />
        </mxCell>
        <mxCell id="D4SyCalu29Dmkyxth2O4-5" style="edgeStyle=orthogonalEdgeStyle;rounded=0;orthogonalLoop=1;jettySize=auto;html=1;" edge="1" parent="1" source="Kf68Aui4b1_65YNm7yTW-34" target="Kf68Aui4b1_65YNm7yTW-43">
          <mxGeometry relative="1" as="geometry" />
        </mxCell>
        <mxCell id="D4SyCalu29Dmkyxth2O4-6" style="edgeStyle=orthogonalEdgeStyle;rounded=0;orthogonalLoop=1;jettySize=auto;html=1;" edge="1" parent="1" source="Kf68Aui4b1_65YNm7yTW-24" target="Kf68Aui4b1_65YNm7yTW-5">
          <mxGeometry relative="1" as="geometry" />
        </mxCell>
      </root>
    </mxGraphModel>
  </diagram>
</mxfile>
